<?xml version="1.0" encoding="utf-8"?>
<!-- Generator: Adobe Illustrator 25.2.1, SVG Export Plug-In . SVG Version: 6.00 Build 0)  -->
<svg version="1.1" id="Layer_2_1_" xmlns="http://www.w3.org/2000/svg" xmlns:xlink="http://www.w3.org/1999/xlink" x="0px" y="0px"
	 viewBox="0 0 56.7 63.6" style="enable-background:new 0 0 56.7 63.6;" xml:space="preserve">
<style type="text/css">
	.st0{fill:#6E0A05;}
</style>
<g id="Layer_1" transform="translate(0.5 0.5)">
	<path d="M45.9,63.1H-0.5V-0.5h37.4l8.9,8.9V63.1z M0.5,62.1h44.4V8.8l-8.3-8.3h-36V62.1z"/>
	<rect x="8.6" y="49.2" width="25.9" height="1"/>
	<rect x="8.6" y="42.7" width="13" height="1"/>
	<rect x="8.6" y="36.2" width="13" height="1"/>
	<rect x="8.6" y="29.7" width="19.4" height="1"/>
	<rect x="8.6" y="23.3" width="25.9" height="1"/>
	<rect x="8.6" y="16.8" width="25.9" height="1"/>
	<polygon points="45.4,9.1 36.2,9.1 36.2,0 37.2,0 37.2,8.1 45.4,8.1 	"/>
	<path id="Path_1133" class="st0" d="M47.8,19.1l4.3,4.3L32.4,43.2l-6.5,2.2l2.2-6.5L47.8,19.1z"/>
	
		<rect id="Rectangle_1403" x="51" y="15.5" transform="matrix(0.7071 -0.7071 0.7071 0.7071 2.3531 42.7259)" class="st0" width="3.5" height="6.1"/>
</g>
</svg>
