<?xml version="1.0" encoding="UTF-8"?>
<svg id="Layer_1" data-name="Layer 1" xmlns="http://www.w3.org/2000/svg" viewBox="0 0 112.7 58.85">
  <defs>
    <style>
      .cls-1 {
        letterSpacing: .04em;
      }

      .cls-2 {
        fill: #2a2b2d;
      }

      .cls-2, .cls-3 {
        strokeWidth: 0px;
      }

      .cls-4 {
        letterSpacing: -.03em;
      }

      .cls-5 {
        letterSpacing: 0em;
      }

      .cls-6 {
        letterSpacing: 0em;
      }

      .cls-7 {
        letterSpacing: 0em;
      }

      .cls-8 {
        letterSpacing: 0em;
      }

      .cls-9 {
        letterSpacing: -.01em;
      }

      .cls-3, .cls-10 {
        fill: #292b2d;
      }

      .cls-10 {
        font-family: MinionConceptRoman-Medium, 'Minion Variable Concept';
        font-size: 12.27px;
        font-variation-settings: 'wght' 500, 'opsz' 11;
        font-weight: 500;
      }

      .cls-11 {
        letterSpacing: -.03em;
      }

      .cls-12 {
        letterSpacing: .01em;
      }

      .cls-13 {
        letterSpacing: 0em;
      }

      .cls-14 {
        letterSpacing: 0em;
      }

      .cls-15 {
        letterSpacing: .05em;
      }
    </style>
  </defs>
  <g>
    <polygon class="cls-3" points="3.98 36.86 27.76 19.02 36.63 23.51 44.98 16.9 50.77 16.9 60.67 2.82 76.22 20.14 84.32 14.03 108.1 35.74 105.01 36.23 96.91 28.5 93.06 30 93.96 26.5 83.8 17.4 75.06 25.51 77.76 34.74 69.79 27.25 56.81 33.49 65.29 24.38 72.62 22.64 60.79 8.5 47.25 27.88 44.61 22.9 32.13 35.11 33.67 27.38 27.63 23.01 8.35 36.86 3.98 36.86"/>
    <path class="cls-2" d="m45.34,21.01h5.77l7.52-10.7c-2.63-2.08-6.11-3.35-9.94-3.35-8.17,0-14.8,5.76-14.8,12.87,0,2.91,1.12,5.58,2.99,7.73l.11.05,8.34-6.6Z"/>
  </g>
  <rect class="cls-3" x="2.69" y="55.97" width="106.77" height="1"/>
  <rect class="cls-3" x="3.31" y="41.09" width="105.52" height="1"/>
  <text class="cls-10" transform="translate(3.2 52.9) scale(1.08 1)"><tspan class="cls-1" x="0" y="0">A</tspan><tspan class="cls-6" x="7.94" y="0">l</tspan><tspan class="cls-8" x="11.1" y="0">t</tspan><tspan class="cls-5" x="14.89" y="0">i</tspan><tspan class="cls-9" x="18.18" y="0">t</tspan><tspan class="cls-13" x="21.81" y="0">ud</tspan><tspan x="34.97" y="0">e </tspan><tspan class="cls-11" x="43.14" y="0">I</tspan><tspan class="cls-14" x="47.25" y="0">n</tspan><tspan x="54.06" y="0">ju</tspan><tspan class="cls-15" x="63.86" y="0">r</tspan><tspan class="cls-7" x="69.12" y="0">y</tspan><tspan x="74.7" y="0"> </tspan><tspan class="cls-12" x="77.54" y="0">L</tspan><tspan class="cls-4" x="84.71" y="0">a</tspan><tspan x="89.96" y="0">w</tspan></text>
</svg>