<?xml version="1.0" encoding="UTF-8"?>
<svg id="Layer_1" data-name="Layer 1" xmlns="http://www.w3.org/2000/svg" viewBox="0 0 277.8589 58.8511">
  <defs>
    <style>
      .cls-1 {
        font-size: 21.9075px;
      }

      .cls-1, .cls-2 {
        fill: #767769;
      }

      .cls-1, .cls-3 {
        font-family: CormorantGaramond-SemiBold, 'Cormorant Garamond';
        font-weight: 600;
      }

      .cls-2, .cls-4 {
        stroke-width: 0px;
      }

      .cls-5 {
        letter-spacing: 0em;
      }

      .cls-4, .cls-3 {
        fill: #6d0f0f;
      }

      .cls-6 {
        letter-spacing: -.012em;
      }

      .cls-3 {
        font-size: 25.5593px;
      }
    </style>
  </defs>
  <g>
    <g>
      <g>
        <polygon class="cls-4" points="19.9065 42.2212 19.9065 47.9292 14.9754 45.0823 7.6303 40.8415 7.6303 18.0095 14.9754 13.7688 19.9065 10.9218 24.8376 8.0748 24.8376 2.3668 19.9065 5.2138 14.9754 8.0608 2.687 15.1555 2.687 43.6956 14.9754 50.7903 19.9065 53.6373 24.8376 56.4842 24.8376 50.7762 24.8376 45.0682 24.8376 31.8972 19.9065 31.8972 19.9065 42.2212"/>
        <polygon class="cls-4" points="34.6999 42.3369 34.6999 31.8972 29.7688 31.8972 29.7688 45.1839 34.6999 42.3369"/>
      </g>
      <polygon class="cls-4" points="19.9065 26.9539 24.8376 26.9539 24.8376 13.7828 19.9065 16.6298 19.9065 26.9539"/>
    </g>
    <polygon class="cls-2" points="39.631 7.9451 34.6999 5.0981 29.7688 2.2512 29.7688 7.9592 29.7688 13.6672 29.7688 26.9539 34.6999 26.9539 34.6999 16.5141 34.6999 10.8061 39.631 13.6531 47.1765 18.0095 47.1765 40.8415 39.631 45.1979 34.6999 48.0449 29.7688 50.8919 29.7688 56.5999 34.6999 53.7529 39.631 50.9059 52.1198 43.6956 52.1198 15.1555 39.631 7.9451"/>
  </g>
  <g>
    <text class="cls-3" transform="translate(60.043 26.9166)"><tspan x="0" y="0">Hollington L</tspan><tspan class="cls-6" x="131.2959" y="0">a</tspan><tspan class="cls-5" x="141.7241" y="0">w Firm</tspan></text>
    <g>
      <rect class="cls-2" x="61.5478" y="40.0361" width="77.5792" height="1.3287"/>
      <text class="cls-1" transform="translate(147.8558 46.5015)"><tspan x="0" y="0">LLC</tspan></text>
      <rect class="cls-2" x="195.3729" y="40.0361" width="77.5792" height="1.3287"/>
    </g>
  </g>
</svg>