<?xml version="1.0" encoding="UTF-8"?>
<svg id="Layer_1" data-name="Layer 1" xmlns="http://www.w3.org/2000/svg" viewBox="0 0 277.86 58.85">
  <defs>
    <style>
      .cls-1 {
        font-size: 21.91px;
      }

      .cls-1, .cls-2 {
        fill: #767769;
      }

      .cls-1, .cls-3 {
        font-family: CormorantGaramond-SemiBold, 'Cormorant Garamond';
        font-weight: 600;
      }

      .cls-2, .cls-4 {
        stroke-width: 0px;
      }

      .cls-5 {
        letter-spacing: 0em;
      }

      .cls-4, .cls-3 {
        fill: #6d0f0f;
      }

      .cls-6 {
        letter-spacing: -.01em;
      }

      .cls-3 {
        font-size: 25.56px;
      }
    </style>
  </defs>
  <g>
    <g>
      <g>
        <polygon class="cls-4" points="19.91 42.22 19.91 47.93 14.98 45.08 7.63 40.84 7.63 18.01 14.98 13.77 19.91 10.92 24.84 8.07 24.84 2.37 19.91 5.21 14.98 8.06 2.69 15.16 2.69 43.7 14.98 50.79 19.91 53.64 24.84 56.48 24.84 50.78 24.84 45.07 24.84 31.9 19.91 31.9 19.91 42.22"/>
        <polygon class="cls-4" points="34.7 42.34 34.7 31.9 29.77 31.9 29.77 45.18 34.7 42.34"/>
      </g>
      <polygon class="cls-4" points="19.91 26.95 24.84 26.95 24.84 13.78 19.91 16.63 19.91 26.95"/>
    </g>
    <polygon class="cls-2" points="39.63 7.95 34.7 5.1 29.77 2.25 29.77 7.96 29.77 13.67 29.77 26.95 34.7 26.95 34.7 16.51 34.7 10.81 39.63 13.65 47.18 18.01 47.18 40.84 39.63 45.2 34.7 48.04 29.77 50.89 29.77 56.6 34.7 53.75 39.63 50.91 52.12 43.7 52.12 15.16 39.63 7.95"/>
  </g>
  <g>
    <text class="cls-3" transform="translate(60.04 26.92)"><tspan x="0" y="0">Hollington L</tspan><tspan class="cls-6" x="131.3" y="0">a</tspan><tspan class="cls-5" x="141.72" y="0">w Firm</tspan></text>
    <g>
      <rect class="cls-2" x="61.55" y="40.04" width="77.58" height="1.33"/>
      <text class="cls-1" transform="translate(147.86 46.5)"><tspan x="0" y="0">LLC</tspan></text>
      <rect class="cls-2" x="195.37" y="40.04" width="77.58" height="1.33"/>
    </g>
  </g>
</svg>