<?xml version="1.0" encoding="utf-8"?>
<!-- Generator: Adobe Illustrator 25.2.0, SVG Export Plug-In . SVG Version: 6.00 Build 0)  -->
<svg version="1.1" id="Layer_1" xmlns="http://www.w3.org/2000/svg" xmlns:xlink="http://www.w3.org/1999/xlink" x="0px" y="0px"
	 viewBox="0 0 50 50" style="enable-background:new 0 0 50 50;" xml:space="preserve">
<style type="text/css">
	.st0{fill:#547EC0;}
</style>
<g>
	<path d="M46.5,21.7l-3,3L32.3,13.5l3-3l-0.6-0.6l-3.6,3.6l0.7,0.7l-1.1,1.1c-0.4,0.4-1,0.6-1.6,0.6h-8.9c-0.6,0-1.1-0.2-1.5-0.6
		l-1-0.9l0.9-0.9l-3.6-3.6l-0.6,0.6l3,3L6.5,24.7l-3-3l-0.6,0.6l3.6,3.6L9,23.3l4.4,4.4l-0.6,0.6c-0.4,0.4-0.6,1-0.6,1.6
		c0,0.6,0.2,1.1,0.6,1.6c0.4,0.4,0.9,0.6,1.5,0.6c-0.4,0.4-0.6,1-0.6,1.6c0,0.6,0.2,1.1,0.6,1.6c0.4,0.4,1,0.6,1.6,0.6
		c0.3,0,0.7-0.1,1-0.2c0,0,0,0.1,0,0.1c0,0.6,0.2,1.1,0.6,1.6c0.4,0.4,1,0.6,1.6,0.6c0.3,0,0.5-0.1,0.8-0.2c0,0,0,0.1,0,0.1
		c0,0.6,0.2,1.1,0.6,1.6c0.4,0.4,1,0.6,1.6,0.6c0.6,0,1.1-0.2,1.6-0.6l1.1-1.1c0.1-0.1,0.2-0.2,0.3-0.3l1.4,1.4
		c0.4,0.4,1,0.6,1.6,0.6c0.6,0,1.1-0.2,1.6-0.6c0.4-0.4,0.6-1,0.6-1.6c0,0,0-0.1,0-0.1c0.3,0.1,0.5,0.2,0.8,0.2
		c0.6,0,1.1-0.2,1.6-0.6c0.4-0.4,0.6-1,0.6-1.6c0,0,0-0.1,0-0.1c0.3,0.1,0.6,0.2,1,0.2c0.6,0,1.1-0.2,1.6-0.6c0.4-0.4,0.6-1,0.6-1.6
		c0-0.6-0.2-1.1-0.6-1.5c0.5,0,1-0.3,1.4-0.6c0.9-0.9,0.9-2.3,0-3.1l-3.6-3.6c0.3-0.5,2.1-3.2-0.5-5.8l-0.6,0.6c2,2,0.8,4.1,0.5,4.7
		l-2.7-2.7c-0.5-0.5-1.3-0.8-2-0.8h-3.5l-0.2,0.1l-1.9,1.6c-0.5,0.4-1.1,0.6-1.7,0.6h-1.8c-0.3,0-0.5-0.2-0.5-0.5v-0.3
		c0-0.1,0-0.2,0.1-0.3l5.1-5.1h5.4c0.8,0,1.6-0.3,2.1-0.9l1.1-1.1l7.9,7.9l-4.5,4.5l0.6,0.6l4.5-4.5l2.6,2.6l3.6-3.6L46.5,21.7z
		 M13.3,30.9c-0.3-0.3-0.4-0.6-0.4-1c0-0.4,0.1-0.7,0.4-1l2.1-2.1c0.3-0.3,0.6-0.4,1-0.4c0.4,0,0.7,0.1,1,0.4c0.6,0.6,0.6,1.4,0,2
		l-2.1,2.1C14.8,31.4,13.9,31.4,13.3,30.9z M16.8,34.7c-0.5,0.5-1.5,0.5-2,0c-0.3-0.3-0.4-0.6-0.4-1c0-0.4,0.1-0.7,0.4-1l3.2-3.2
		c0.3-0.3,0.6-0.4,1-0.4c0.4,0,0.7,0.1,1,0.4c0.3,0.3,0.4,0.6,0.4,1c0,0.4-0.1,0.7-0.4,1L16.8,34.7z M20,36.8c-0.5,0.5-1.5,0.5-2,0
		c-0.3-0.3-0.4-0.6-0.4-1c0-0.4,0.1-0.7,0.4-1l2.1-2.1c0.3-0.3,0.6-0.4,1-0.4c0.4,0,0.7,0.1,1,0.4c0.6,0.6,0.6,1.4,0,2L20,36.8z
		 M24.1,37.8L23,38.9c-0.5,0.5-1.5,0.5-2,0c-0.3-0.3-0.4-0.6-0.4-1c0-0.4,0.1-0.7,0.4-1l1.1-1.1c0.3-0.3,0.6-0.4,1-0.4
		c0.4,0,0.7,0.1,1,0.4c0.3,0.3,0.4,0.6,0.4,1S24.4,37.6,24.1,37.8z M18.2,21.2c-0.2,0.2-0.4,0.6-0.4,0.9v0.3c0,0.7,0.6,1.3,1.3,1.3
		h1.8c0.8,0,1.6-0.3,2.2-0.8l1.7-1.4h3.4c0.5,0,1.1,0.2,1.4,0.6l6.9,6.9c0.6,0.6,0.6,1.5,0,2c-0.5,0.5-1.5,0.5-2,0l-3.2-3.2l0,0l0,0
		l-0.6,0.6l3.2,3.2c0,0,0,0,0,0l1.1,1.1c0.3,0.3,0.4,0.6,0.4,1c0,0.4-0.1,0.7-0.4,1c-0.5,0.5-1.5,0.5-2,0l-4.3-4.3l-0.1,0.1
		l-0.5,0.5L28.1,31l3.8,3.8c0.3,0.3,0.4,0.6,0.4,1c0,0.4-0.1,0.7-0.4,1c-0.5,0.5-1.5,0.5-2,0L26.1,33l-0.6,0.6l0,0l0,0l3.4,3.4
		c0.3,0.3,0.4,0.6,0.4,1c0,0.4-0.1,0.7-0.4,1c-0.5,0.5-1.5,0.5-2,0l-1.7-1.7c0-0.1,0.1-0.3,0.1-0.4c0-0.6-0.2-1.1-0.6-1.6
		c-0.4-0.4-1-0.6-1.6-0.6c0.4-0.8,0.3-1.8-0.4-2.5c-0.5-0.5-1.1-0.7-1.7-0.6c0.2-0.3,0.2-0.6,0.2-1c0-0.6-0.2-1.1-0.6-1.6
		c-0.5-0.5-1.3-0.7-2-0.6c0.2-0.7,0-1.5-0.6-2.1c-0.9-0.9-2.3-0.9-3.1,0L14,27.1c-0.4-0.5-1.6-2.6,0.4-4.7l-0.6-0.6
		c-1.4,1.4-1.5,2.8-1.3,3.8l-3-3l7.7-7.7l1,0.9c0.6,0.5,1.3,0.8,2.1,0.8h2.3L18.2,21.2z"/>
	<circle class="st0" cx="6.3" cy="19.8" r="1"/>
	<circle class="st0" cx="43.5" cy="19.8" r="1"/>
</g>
</svg>
