<?xml version="1.0" encoding="utf-8"?>
<!-- Generator: Adobe Illustrator 25.2.0, SVG Export Plug-In . SVG Version: 6.00 Build 0)  -->
<svg version="1.1" id="Layer_1" xmlns="http://www.w3.org/2000/svg" xmlns:xlink="http://www.w3.org/1999/xlink" x="0px" y="0px"
	 viewBox="0 0 47 46" style="enable-background:new 0 0 47 46;" xml:space="preserve">
<style type="text/css">
	.st0{fill:#2283FE;}
	.st1{fill:#FFFFFF;}
</style>
<g>
	<path d="M45.6,21.7L42.4,2.8l0,0L3.9,9.5l0,0l1.4,8.2H5.2v10.9l-1.4,7.9l38.5,6.7l0,0l1.1-6.3l0-0.1l-0.7-0.1l-1,5.6l-37-6.5l0.5-3
		v0.3h5.1c0,0.2,0.1,0.4,0,0.7l-0.1,0.4l6.2,1.1l0.1,0l0.1-0.7l-5.5-0.9c0-0.1,0-0.3,0-0.5h7.8c0.6,1.5,1.7,2.7,3.1,3.3
		c0.9,0.4,1.7,0.6,2.7,0.6c0.8,0,1.5-0.1,2-0.4c1.7-0.6,3-1.9,3.7-3.6h13.8v-7.6h-0.7v6.9H5.9v-3.8l0,0l0,0v-7.4l1.2,7l0,0l3.2-0.6
		c0.5,0.5,0.8,1.1,0.8,1.8V30h6.4v-0.7h-5.7c-0.1-0.6-0.3-1.1-0.7-1.5l7.5-1.3c0.8,2.6,3.2,4.4,6,4.4c0.5,0,1.1-0.1,1.6-0.3
		c2.8-0.8,4.7-3.3,4.6-6.2L45.6,21.7L45.6,21.7z M30.3,24.4c0,2.5-1.6,4.8-4,5.4c-1.5,0.4-3,0.2-4.3-0.5c-1.2-0.7-2-1.7-2.4-3
		L30.3,24.4z M41.8,3.7l3.1,17.5L7.8,27.6L4.7,10.1L41.8,3.7z M19.6,33.3h10c-0.6,1.4-1.8,2.4-3.2,2.9c-1.3,0.5-2.8,0.4-4.2-0.3
		C21.1,35.4,20.2,34.5,19.6,33.3z"/>
	<path d="M36.5,38.1l-5.6-0.9l0,0l-0.1,0.7l0,0.1l5.9,1L37,39l0.1-0.4c0.1-0.6,0.5-1.1,1-1.5c0.5-0.4,1.1-0.5,1.7-0.4l0,0l0.1-0.7
		l0,0C38.4,35.8,36.9,36.7,36.5,38.1z"/>
	<path d="M9.4,22l0.4-0.1c0.6-0.1,1.2,0,1.7,0.4c0.5,0.4,0.8,0.9,0.9,1.5l0.1,0.4l6.3-1l-0.1-0.7L13,23.4c-0.4-1.3-1.5-2.1-2.8-2.1
		c-0.1,0-0.1,0-0.2,0l-1-5.9c1.3-0.4,2.2-1.7,2.1-3l5.5-0.9l0.1,0l-0.1-0.7l-5.9,1l-0.3,0.1l0,0.3c0.1,0.6,0,1.2-0.4,1.7
		c-0.4,0.5-0.9,0.8-1.5,1l-0.4,0.1l1.2,6.9L9.4,22z"/>
	<path d="M36.5,7.9c0.4,1.3,1.5,2.1,2.8,2.1c0.1,0,0.1,0,0.2,0l1,5.8c-1.3,0.4-2.2,1.6-2.1,3l-5.5,0.9l0,0l0.1,0.7l5.9-1h0.4
		l-0.1-0.4c-0.1-0.6,0-1.2,0.4-1.7c0.4-0.5,0.9-0.8,1.5-0.9l0.4-0.1l-1.2-6.9l-0.1-0.4l-0.4,0.1c-0.6,0.1-1.2,0-1.7-0.4
		c-0.5-0.4-0.8-0.9-0.9-1.5L37,7.1l-6.3,1.1l0.1,0.7L36.5,7.9z"/>
	<path d="M24.8,22.1c0.2,0,0.3,0,0.5,0c0.2,0,0.4,0,0.6,0c3.4-0.6,5.7-3.8,5.1-7.3c-0.3-1.7-1.2-3.1-2.6-4.1c-1.4-1-3.1-1.4-4.7-1.1
		c-1.7,0.3-3.1,1.2-4.1,2.6c-1,1.3-1.4,3-1.1,4.7C19,19.8,21.7,22.1,24.8,22.1z M20.2,12.6c0.9-1.3,2.1-2.1,3.6-2.3
		c0.3-0.1,0.6-0.1,0.9-0.1c1.1,0,2.2,0.4,3.2,1.1c1.3,0.9,2.1,2.1,2.3,3.6c0.2,1.5-0.1,3-1,4.2c-0.9,1.2-2.1,2-3.6,2.2
		c-1.5,0.3-2.9-0.1-4.2-0.9c-1.3-0.9-2.1-2.1-2.3-3.6C19,15.2,19.3,13.8,20.2,12.6z"/>
	<path d="M37.6,29.3h-5.7V30h6.4v-0.4c0-1.2,1-2.3,2.3-2.3H41v-1.1h-0.7v0.4C38.8,26.8,37.7,27.9,37.6,29.3z"/>
</g>
<g>
	<circle class="st0" cx="4.5" cy="23" r="2.8"/>
	<polygon class="st1" points="6.1,22.7 4.8,22.7 4.8,21.4 4.2,21.4 4.2,22.7 2.8,22.7 2.8,23.4 4.2,23.4 4.2,24.7 4.8,24.7 
		4.8,23.4 6.1,23.4 	"/>
</g>
</svg>
