<?xml version="1.0" encoding="utf-8"?>
<!-- Generator: Adobe Illustrator 25.2.0, SVG Export Plug-In . SVG Version: 6.00 Build 0)  -->
<svg version="1.1" id="Layer_1" xmlns="http://www.w3.org/2000/svg" xmlns:xlink="http://www.w3.org/1999/xlink" x="0px" y="0px"
	 viewBox="0 0 47 46" style="enable-background:new 0 0 47 46;" xml:space="preserve">
<style type="text/css">
	.st0{fill:#6E0A05;}
</style>
<g id="icon-you-wont-wait-on-us" transform="translate(-249.425 -215.924)">
	<g id="Group_108">
		<rect x="283.1" y="228.3" transform="matrix(0.7069 -0.7073 0.7073 0.7069 -78.1516 268.8126)" width="4.3" height="0.8"/>
		<rect x="286.1" y="224.5" transform="matrix(0.7071 -0.7071 0.7071 0.7071 -76.9083 269.2151)" width="0.8" height="5.8"/>
	</g>
	<g id="Group_109">
		<rect x="260.2" y="226.5" transform="matrix(0.7071 -0.7071 0.7071 0.7071 -85.3688 251.2515)" width="0.8" height="4.3"/>
		<rect x="256.5" y="227" transform="matrix(0.7071 -0.7071 0.7071 0.7071 -84.8666 250.0245)" width="5.8" height="0.8"/>
	</g>
	<path d="M273,259.7c-1,0-1.9-0.1-2.8-0.2c-4.5-0.8-8.4-3.2-11.1-6.9c-2.6-3.7-3.7-8.2-3-12.6l0.4,0.1l-0.4-0.1
		c0.8-4.5,3.2-8.4,6.9-11.1c3.7-2.6,8.2-3.7,12.6-3c9.3,1.5,15.5,10.3,14,19.6c-0.8,4.5-3.2,8.4-6.9,11.1
		C279.9,258.5,276.5,259.7,273,259.7z M272.9,226.5c-3.3,0-6.6,1-9.4,3c-3.5,2.5-5.9,6.2-6.6,10.5c-0.7,4.3,0.3,8.6,2.8,12.1
		c2.5,3.5,6.2,5.9,10.5,6.6c4.3,0.7,8.6-0.3,12.1-2.8c3.5-2.5,5.9-6.2,6.6-10.5c1.5-8.8-4.5-17.1-13.3-18.6
		C274.7,226.6,273.8,226.5,272.9,226.5z"/>
	<path d="M273.1,256.1c-3.5,0-6.9-1.3-9.5-3.9l-0.3-0.3l0.6-0.6l0.3,0.3c4.9,4.9,13,4.9,17.9,0c4.9-4.9,4.9-13,0-17.9
		c-2.4-2.4-5.6-3.7-8.9-3.7h-0.4v-0.8h0.4c3.6,0,7,1.4,9.5,3.9c5.3,5.3,5.3,13.8,0,19.1C280,254.8,276.5,256.1,273.1,256.1z"/>
	<g id="Group_110">
		<rect x="274.4" y="221.2" width="0.8" height="3.4"/>
		<rect x="270.6" y="221.2" width="0.8" height="3.4"/>
	</g>
	<path d="M277.3,222h-8.8v-3.8h8.8V222z M269.3,221.2h7.2V219h-7.2V221.2z"/>
	<g id="Ellipse_47" transform="translate(273.815 247.397)">
		<circle class="st0" cx="-1.2" cy="-5" r="2.4"/>
		<g>
			<path d="M-4.6-2.2l-4.8,3.9l0.6,0.6l4.8-4C-4.3-1.8-4.5-1.9-4.6-2.2z"/>
			<path d="M-1.2-9.5c0.2,0,0.5,0,0.7,0.1v-5h-0.8v5C-1.2-9.5-1.2-9.5-1.2-9.5z"/>
		</g>
	</g>
</g>
</svg>
